<svg width="800" height="800">
    <g transform="translate(400,400)">
        <path d="M2.9850765729216736e-15,-48.75A48.75,48.75,0,1,1,-2.9850765729216736e-15,48.75A48.75,48.75,0,1,1,2.9850765729216736e-15,-48.75Z" style="fill: rgb(171, 171, 171); stroke: rgb(255, 255, 255); stroke-width: 1;">
            <title>Feelings</title>
        </path>
        <path d="M8.44307154829606e-15,-137.88582233137677A137.88582233137677,137.88582233137677,0,0,1,121.1343841450441,-65.87079001955944L42.827472231908445,-23.288841152472816A48.75,48.75,0,0,0,2.9850765729216736e-15,-48.75Z" style="fill: rgb(161, 146, 255); stroke: rgb(255, 255, 255); stroke-width: 1;">
            <title>Fearful</title>
        </path>
        <path d="M121.1343841450441,-65.87079001955944A137.88582233137677,137.88582233137677,0,0,1,115.7365920187304,74.95025862457014L40.91906452393256,26.498918062559532A48.75,48.75,0,0,0,42.827472231908445,-23.288841152472816Z" style="fill: rgb(255, 44, 169); stroke: rgb(255, 255, 255); stroke-width: 1;">
            <title>Angry</title>
        </path>
        <path d="M115.7365920187304,74.95025862457014A137.88582233137677,137.88582233137677,0,0,1,51.5440743522717,127.88943818457992L18.22358225223746,45.21574449122712A48.75,48.75,0,0,0,40.91906452393256,26.498918062559532Z" style="fill: rgb(255, 114, 21); stroke: rgb(255, 255, 255); stroke-width: 1;">
            <title>Disgusted</title>
        </path>
        <path d="M51.5440743522717,127.88943818457992A137.88582233137677,137.88582233137677,0,0,1,-70.46223084225906,118.52246211048856L-24.91216062304664,41.90401834062605A48.75,48.75,0,0,0,18.22358225223746,45.21574449122712Z" style="fill: rgb(195, 172, 0); stroke: rgb(255, 255, 255); stroke-width: 1;">
            <title>Sad</title>
        </path>
        <path d="M-70.46223084225906,118.52246211048856A137.88582233137677,137.88582233137677,0,0,1,-129.76986944465324,-46.607735241241365L-45.88057733900363,-16.478322822414498A48.75,48.75,0,0,0,-24.91216062304664,41.90401834062605Z" style="fill: rgb(0, 205, 107); stroke: rgb(255, 255, 255); stroke-width: 1;">
            <title>Happy</title>
        </path>
        <path d="M-129.76986944465324,-46.607735241241365A137.88582233137677,137.88582233137677,0,0,1,-79.32828656683041,-112.78086251829623L-28.046784685657748,-39.874056337377496A48.75,48.75,0,0,0,-45.88057733900363,-16.478322822414498Z" style="fill: rgb(0, 208, 255); stroke: rgb(255, 255, 255); stroke-width: 1;">
            <title>Surprised</title>
        </path>
        <path d="M-79.32828656683041,-112.78086251829623A137.88582233137677,137.88582233137677,0,0,1,-2.5329214644888177e-14,-137.88582233137677L-8.95522971876502e-15,-48.75A48.75,48.75,0,0,0,-28.046784685657748,-39.874056337377496Z" style="fill: rgb(0, 196, 255); stroke: rgb(255, 255, 255); stroke-width: 1;">
            <title>Bad</title>
        </path>
        <path d="M2.842170943040401e-14,-253.3124306069483A253.3124306069483,253.3124306069483,0,0,1,38.66796121589397,-250.343716269065L21.04817208281557,-136.26985892695487A137.88582233137677,137.88582233137677,0,0,0,1.4210854715202004e-14,-137.88582233137677Z" style="fill: rgb(59, 175, 255); stroke: rgb(255, 255, 255); stroke-width: 1;">
            <title>Scared</title>
        </path>
        <path d="M212.62169626092117,137.69241728987325A253.3124306069483,253.3124306069483,0,0,1,189.11121114397395,168.53527025420914L102.93910487610401,91.73898128552803A137.88582233137677,137.88582233137677,0,0,0,115.7365920187304,74.95025862457014Z" style="fill: rgb(255, 130, 105); stroke: rgb(255, 255, 255); stroke-width: 1;">
            <title>Disapproving</title>
        </path>
        <path d="M189.11121114397395,168.53527025420914A253.3124306069483,253.3124306069483,0,0,1,161.16811952104197,195.42779932765743L87.72881236232124,106.37741997950803A137.88582233137677,137.88582233137677,0,0,0,102.93910487610401,91.73898128552803Z" style="fill: rgb(255, 136, 91); stroke: rgb(255, 255, 255); stroke-width: 1;">
            <title>Disappointed</title>
        </path>
        <path d="M161.16811952104197,195.42779932765743A253.3124306069483,253.3124306069483,0,0,1,129.4473837763004,217.7396664217873L70.46223084225898,118.52246211048862A137.88582233137677,137.88582233137677,0,0,0,87.72881236232124,106.37741997950803Z" style="fill: rgb(251, 143, 79); stroke: rgb(255, 255, 255); stroke-width: 1;">
            <title>Awful</title>
        </path>
        <path d="M129.4473837763004,217.7396664217873A253.3124306069483,253.3124306069483,0,0,1,94.69251107035716,234.9479002825739L51.54407435227164,127.88943818457993A137.88582233137677,137.88582233137677,0,0,0,70.46223084225898,118.52246211048862Z" style="fill: rgb(241, 150, 67); stroke: rgb(255, 255, 255); stroke-width: 1;">
            <title>Repelled</title>
        </path>
        <path d="M94.69251107035726,234.94790028257387A253.3124306069483,253.3124306069483,0,0,1,57.71812616257563,246.64915449334308L31.417768446198764,134.25879422168603A137.88582233137677,137.88582233137677,0,0,0,51.54407435227169,127.88943818457993Z" style="fill: rgb(229, 156, 58); stroke: rgb(255, 255, 255); stroke-width: 1;">
            <title>Hurt</title>
        </path>
        <path d="M38.66796121589397,-250.343716269065A253.3124306069483,253.3124306069483,0,0,1,76.42957819433158,-241.50715740332947L41.60299285161335,-131.45984552626177A137.88582233137677,137.88582233137677,0,0,0,21.04817208281556,-136.26985892695487Z" style="fill: rgb(111, 169, 255); stroke: rgb(255, 255, 255); stroke-width: 1;">
            <title>Anxious</title>
        </path>
        <path d="M76.42957819433158,-241.50715740332947A253.3124306069483,253.3124306069483,0,0,1,112.39975063860062,-227.00987546003455L61.182674729030936,-123.56852476663141A137.88582233137677,137.88582233137677,0,0,0,41.60299285161335,-131.45984552626177Z" style="fill: rgb(146, 162, 255); stroke: rgb(255, 255, 255); stroke-width: 1;">
            <title>Insecure</title>
        </path>
        <path d="M112.39975063860062,-227.00987546003455A253.3124306069483,253.3124306069483,0,0,1,145.73536819351182,-207.19167444060474L79.32828656683046,-112.7808625182962A137.88582233137677,137.88582233137677,0,0,0,61.182674729030936,-123.56852476663141Z" style="fill: rgb(174, 155, 255); stroke: rgb(255, 255, 255); stroke-width: 1;">
            <title>Weak</title>
        </path>
        <path d="M145.73536819351182,-207.19167444060474A253.3124306069483,253.3124306069483,0,0,1,175.65507223753735,-182.5170761798072L95.61451060304132,-99.34971244115859A137.88582233137677,137.88582233137677,0,0,0,79.32828656683046,-112.7808625182962Z" style="fill: rgb(198, 148, 255); stroke: rgb(255, 255, 255); stroke-width: 1;">
            <title>Rejected</title>
        </path>
        <path d="M175.65507223753735,-182.5170761798072A253.3124306069483,253.3124306069483,0,0,1,201.4575702666505,-153.5644323476552L109.65961154981817,-83.58988930931173A137.88582233137677,137.88582233137677,0,0,0,95.61451060304132,-99.34971244115859Z" style="fill: rgb(218, 141, 247); stroke: rgb(255, 255, 255); stroke-width: 1;">
            <title>Threatened</title>
        </path>
        <path d="M201.4575702666505,-153.5644323476552A253.3124306069483,253.3124306069483,0,0,1,222.53807359623207,-121.01236837645155L121.1343841450441,-65.87079001955944A137.88582233137677,137.88582233137677,0,0,0,109.65961154981817,-83.58988930931173Z" style="fill: rgb(235, 134, 234); stroke: rgb(255, 255, 255); stroke-width: 1;">
            <title>Let-down</title>
        </path>
        <path d="M222.53807359623207,-121.01236837645155A253.3124306069483,253.3124306069483,0,0,1,238.4024730952427,-85.62387705583112L129.76986944465324,-46.60773524124138A137.88582233137677,137.88582233137677,0,0,0,121.1343841450441,-65.87079001955944Z" style="fill: rgb(249, 128, 219); stroke: rgb(255, 255, 255); stroke-width: 1;">
            <title>Humiliated</title>
        </path>
        <path d="M238.4024730952427,-85.62387705583112A253.3124306069483,253.3124306069483,0,0,1,248.67892068546712,-48.22843462845497L135.36365899232072,-26.25223465175322A137.88582233137677,137.88582233137677,0,0,0,129.76986944465324,-46.60773524124138Z" style="fill: rgb(255, 124, 203); stroke: rgb(255, 255, 255); stroke-width: 1;">
            <title>Bitter</title>
        </path>
        <path d="M248.67892068546712,-48.22843462845497A253.3124306069483,253.3124306069483,0,0,1,253.12654514530357,-9.702558569913522L137.78463910212537,-5.2814039323902655A137.88582233137677,137.88582233137677,0,0,0,135.36365899232072,-26.25223465175322Z" style="fill: rgb(255, 120, 186); stroke: rgb(255, 255, 255); stroke-width: 1;">
            <title>Mad</title>
        </path>
        <path d="M253.12654514530357,-9.702558569913522A253.3124306069483,253.3124306069483,0,0,1,251.6410979270451,29.050737237999453L136.97606405222095,15.81321841883755A137.88582233137677,137.88582233137677,0,0,0,137.78463910212537,-5.2814039323902655Z" style="fill: rgb(255, 119, 169); stroke: rgb(255, 255, 255); stroke-width: 1;">
            <title>Aggressive</title>
        </path>
        <path d="M251.6410979270451,29.050737237999453A253.3124306069483,253.3124306069483,0,0,1,244.2573966544811,67.12310838731682L132.95688615646083,36.53719233299024A137.88582233137677,137.88582233137677,0,0,0,136.97606405222095,15.81321841883755Z" style="fill: rgb(255, 119, 152); stroke: rgb(255, 255, 255); stroke-width: 1;">
            <title>Frustrated</title>
        </path>
        <path d="M244.2573966544811,67.12310838731682A253.3124306069483,253.3124306069483,0,0,1,231.1485090273054,103.62217076694401L125.82131153822432,56.40476542634583A137.88582233137677,137.88582233137677,0,0,0,132.95688615646083,36.53719233299024Z" style="fill: rgb(255, 121, 136); stroke: rgb(255, 255, 255); stroke-width: 1;">
            <title>Distant</title>
        </path>
        <path d="M231.1485090273054,103.62217076694401A253.3124306069483,253.3124306069483,0,0,1,212.6216962609211,137.69241728987333L115.73659201873038,74.95025862457018A137.88582233137677,137.88582233137677,0,0,0,125.82131153822432,56.40476542634583Z" style="fill: rgb(255, 125, 120); stroke: rgb(255, 255, 255); stroke-width: 1;">
            <title>Critical</title>
        </path>
        <path d="M57.718126162575636,246.64915449334305A253.3124306069483,253.3124306069483,0,0,1,19.39087729715838,252.5691615729176L10.555056676212589,137.4812379147131A137.88582233137677,137.88582233137677,0,0,0,31.41776844619876,134.25879422168603Z" style="fill: rgb(216, 162, 51); stroke: rgb(255, 255, 255); stroke-width: 1;">
            <title>Depressed</title>
        </path>
        <path d="M19.39087729715838,252.5691615729176A253.3124306069483,253.3124306069483,0,0,1,-19.390877297158685,252.56916157291758L-10.555056676212756,137.48123791471306A137.88582233137677,137.88582233137677,0,0,0,10.555056676212589,137.4812379147131Z" style="fill: rgb(201, 168, 48); stroke: rgb(255, 255, 255); stroke-width: 1;">
            <title>Guilty</title>
        </path>
        <path d="M-19.39087729715868,252.56916157291758A253.3124306069483,253.3124306069483,0,0,1,-57.71812616257594,246.649154493343L-31.41776844619892,134.258794221686A137.88582233137677,137.88582233137677,0,0,0,-10.555056676212757,137.48123791471306Z" style="fill: rgb(186, 174, 48); stroke: rgb(255, 255, 255); stroke-width: 1;">
            <title>Despair</title>
        </path>
        <path d="M367.044618712029,131.8265825793162A390,390,0,0,1,355.87641042585443,159.53676849682265L231.1485090273054,103.62217076694401A253.3124306069483,253.3124306069483,0,0,0,238.40247309524264,85.62387705583123Z" style="fill: rgb(222, 154, 154); stroke: rgb(255, 255, 255); stroke-width: 1;">
            <title>Numb</title>
        </path>
        <path d="M355.87641042585443,159.53676849682265A390,390,0,0,1,342.6197778552675,186.31072921978262L222.53807359623204,121.0123683764516A253.3124306069483,253.3124306069483,0,0,0,231.1485090273054,103.62217076694401Z" style="fill: rgb(221, 154, 150); stroke: rgb(255, 255, 255); stroke-width: 1;">
            <title>Sceptical</title>
        </path>
        <path d="M342.6197778552675,186.31072921978262A390,390,0,0,1,327.3525161914604,211.99134450047637L212.6216962609211,137.69241728987333A253.3124306069483,253.3124306069483,0,0,0,222.53807359623204,121.0123683764516Z" style="fill: rgb(221, 155, 147); stroke: rgb(255, 255, 255); stroke-width: 1;">
            <title>Dismissive</title>
        </path>
        <path d="M327.3525161914605,211.99134450047626A390,390,0,0,1,310.1642197966363,236.42791027698885L201.4575702666505,153.5644323476552A253.3124306069483,253.3124306069483,0,0,0,212.62169626092117,137.69241728987325Z" style="fill: rgb(220, 155, 144); stroke: rgb(255, 255, 255); stroke-width: 1;">
            <title>Judgmental</title>
        </path>
        <path d="M310.1642197966363,236.42791027698885A390,390,0,0,1,291.15575642866537,259.4770230645706L189.11121114397395,168.53527025420914A253.3124306069483,253.3124306069483,0,0,0,201.4575702666505,153.5644323476552Z" style="fill: rgb(219, 156, 140); stroke: rgb(255, 255, 255); stroke-width: 1;">
            <title>Embarrassed</title>
        </path>
        <path d="M291.15575642866537,259.4770230645706A390,390,0,0,1,270.43867530897415,281.0034215043071L175.65507223753727,182.51707617980728A253.3124306069483,253.3124306069483,0,0,0,189.11121114397395,168.53527025420914Z" style="fill: rgb(217, 157, 138); stroke: rgb(255, 255, 255); stroke-width: 1;">
            <title>Appalled</title>
        </path>
        <path d="M270.43867530897415,281.0034215043071A390,390,0,0,1,248.13455250735828,300.8807801305578L161.16811952104197,195.42779932765743A253.3124306069483,253.3124306069483,0,0,0,175.65507223753727,182.51707617980728Z" style="fill: rgb(215, 158, 135); stroke: rgb(255, 255, 255); stroke-width: 1;">
            <title>Revolted</title>
        </path>
        <path d="M248.13455250735828,300.8807801305578A390,390,0,0,1,224.37427748526193,318.99245069901997L145.73536819351173,207.1916744406048A253.3124306069483,253.3124306069483,0,0,0,161.16811952104197,195.42779932765743Z" style="fill: rgb(213, 159, 132); stroke: rgb(255, 255, 255); stroke-width: 1;">
            <title>Nauseated</title>
        </path>
        <path d="M224.37427748526193,318.99245069901997A390,390,0,0,1,199.29728498437285,335.23214672500853L129.4473837763004,217.7396664217873A253.3124306069483,253.3124306069483,0,0,0,145.73536819351173,207.1916744406048Z" style="fill: rgb(211, 160, 130); stroke: rgb(255, 255, 255); stroke-width: 1;">
            <title>Detestable</title>
        </path>
        <path d="M199.29728498437285,335.23214672500853A390,390,0,0,1,173.05073676811404,349.5045672148118L112.39975063860042,227.00987546003466A253.3124306069483,253.3124306069483,0,0,0,129.4473837763004,217.7396664217873Z" style="fill: rgb(209, 161, 128); stroke: rgb(255, 255, 255); stroke-width: 1;">
            <title>Horrified</title>
        </path>
        <path d="M173.05073676811404,349.5045672148118A390,390,0,0,1,145.78865801789954,361.725955929817L94.69251107035716,234.9479002825739A253.3124306069483,253.3124306069483,0,0,0,112.39975063860042,227.00987546003466Z" style="fill: rgb(206, 163, 126); stroke: rgb(255, 255, 255); stroke-width: 1;">
            <title>Hesitant</title>
        </path>
        <path d="M145.78865801789968,361.72595592981696A390,390,0,0,1,117.67103345212477,371.824592901423L76.42957819433141,241.50715740332953A253.3124306069483,253.3124306069483,0,0,0,94.69251107035726,234.94790028257387Z" style="fill: rgb(204, 164, 125); stroke: rgb(255, 255, 255); stroke-width: 1;">
            <title>Embarrassed</title>
        </path>
        <path d="M117.67103345212477,371.824592901423A390,390,0,0,1,88.86286847222354,379.74121531233385L57.718126162575636,246.64915449334305A253.3124306069483,253.3124306069483,0,0,0,76.42957819433141,241.50715740332953Z" style="fill: rgb(201, 165, 123); stroke: rgb(255, 255, 255); stroke-width: 1;">
            <title>Disapointed</title>
        </path>
        <path d="M88.86286847222354,379.74121531233385A390,390,0,0,1,59.53322084536087,385.42936527433596L38.667961215893854,250.34371626906503A253.3124306069483,253.3124306069483,0,0,0,57.718126162575636,246.64915449334305Z" style="fill: rgb(198, 166, 122); stroke: rgb(255, 255, 255); stroke-width: 1;">
            <title>Inferior</title>
        </path>
        <path d="M59.53322084536087,385.42936527433596A390,390,0,0,1,29.854208606233048,388.8556624616588L19.39087729715838,252.5691615729176A253.3124306069483,253.3124306069483,0,0,0,38.667961215893854,250.34371626906503Z" style="fill: rgb(194, 168, 122); stroke: rgb(255, 255, 255); stroke-width: 1;">
            <title>Empty</title>
        </path>
        <path d="M29.854208606233048,388.8556624616588A390,390,0,0,1,-3.2250897109967546e-13,390L-2.094757214405252e-13,253.3124306069483A253.3124306069483,253.3124306069483,0,0,0,19.39087729715838,252.5691615729176Z" style="fill: rgb(191, 169, 121); stroke: rgb(255, 255, 255); stroke-width: 1;">
            <title>Remorseful</title>
        </path>
        <path d="M-3.2250897109967546e-13,390A390,390,0,0,1,-29.85420860623352,388.85566246165877L-19.390877297158685,252.56916157291758A253.3124306069483,253.3124306069483,0,0,0,-2.094757214405252e-13,253.3124306069483Z" style="fill: rgb(187, 170, 121); stroke: rgb(255, 255, 255); stroke-width: 1;">
            <title>Ashamed</title>
        </path>
        <path d="M-29.85420860623352,388.85566246165877A390,390,0,0,1,-59.533220845361335,385.4293652743359L-38.66796121589416,250.34371626906497A253.3124306069483,253.3124306069483,0,0,0,-19.390877297158685,252.56916157291758Z" style="fill: rgb(184, 171, 121); stroke: rgb(255, 255, 255); stroke-width: 1;">
            <title>Powerless</title>
        </path>
        <path d="M-59.533220845361335,385.4293652743359A390,390,0,0,1,-88.862868472224,379.74121531233374L-57.718126162575935,246.649154493343A253.3124306069483,253.3124306069483,0,0,0,-38.66796121589416,250.34371626906497Z" style="fill: rgb(180, 172, 122); stroke: rgb(255, 255, 255); stroke-width: 1;">
            <title>Grief</title>
        </path>
        <path d="M-88.862868472224,379.74121531233374A390,390,0,0,1,-117.6710334521254,371.82459290142276L-76.42957819433182,241.5071574033294A253.3124306069483,253.3124306069483,0,0,0,-57.718126162575935,246.649154493343Z" style="fill: rgb(176, 174, 123); stroke: rgb(255, 255, 255); stroke-width: 1;">
            <title>Fragile</title>
        </path>
        <path d="M-117.6710334521254,371.82459290142276A390,390,0,0,1,-145.7886580179001,361.7259559298168L-94.69251107035754,234.94790028257376A253.3124306069483,253.3124306069483,0,0,0,-76.42957819433182,241.5071574033294Z" style="fill: rgb(172, 175, 124); stroke: rgb(255, 255, 255); stroke-width: 1;">
            <title>Victimised</title>
        </path>
        <path d="M-145.7886580179001,361.7259559298168A390,390,0,0,1,-173.05073676811463,349.5045672148115L-112.3997506386008,227.00987546003446A253.3124306069483,253.3124306069483,0,0,0,-94.69251107035754,234.94790028257376Z" style="fill: rgb(168, 176, 125); stroke: rgb(255, 255, 255); stroke-width: 1;">
            <title>Abandoned</title>
        </path>
        <path d="M-173.05073676811463,349.5045672148115A390,390,0,0,1,-199.29728498437342,335.2321467250082L-129.44738377630074,217.73966642178706A253.3124306069483,253.3124306069483,0,0,0,-112.3997506386008,227.00987546003446Z" style="fill: rgb(164, 177, 127); stroke: rgb(255, 255, 255); stroke-width: 1;">
            <title>Isolated</title>
        </path>
        <path d="M-199.2972849843731,335.2321467250084A390,390,0,0,1,-224.37427748526218,318.9924506990198L-145.7353681935119,207.1916744406047A253.3124306069483,253.3124306069483,0,0,0,-129.44738377630054,217.7396664217872Z" style="fill: rgb(160, 178, 129); stroke: rgb(255, 255, 255); stroke-width: 1;">
            <title>Inspired</title>
        </path>
        <path d="M-224.37427748526218,318.9924506990198A390,390,0,0,1,-248.1345525073585,300.8807801305576L-161.16811952104212,195.42779932765728A253.3124306069483,253.3124306069483,0,0,0,-145.7353681935119,207.1916744406047Z" style="fill: rgb(155, 179, 131); stroke: rgb(255, 255, 255); stroke-width: 1;">
            <title>Hopeful</title>
        </path>
        <path d="M-248.1345525073585,300.8807801305576A390,390,0,0,1,-270.4386753089745,281.00342150430674L-175.6550722375375,182.51707617980705A253.3124306069483,253.3124306069483,0,0,0,-161.16811952104212,195.42779932765728Z" style="fill: rgb(151, 180, 133); stroke: rgb(255, 255, 255); stroke-width: 1;">
            <title>Intimate</title>
        </path>
        <path d="M-270.4386753089745,281.00342150430674A390,390,0,0,1,-291.1557564286656,259.47702306457035L-189.1112111439741,168.535270254209A253.3124306069483,253.3124306069483,0,0,0,-175.6550722375375,182.51707617980705Z" style="fill: rgb(147, 180, 136); stroke: rgb(255, 255, 255); stroke-width: 1;">
            <title>Sensitive</title>
        </path>
        <path d="M-291.1557564286656,259.47702306457035A390,390,0,0,1,-310.16421979663653,236.4279102769885L-201.45757026665066,153.564432347655A253.3124306069483,253.3124306069483,0,0,0,-189.1112111439741,168.535270254209Z" style="fill: rgb(143, 181, 139); stroke: rgb(255, 255, 255); stroke-width: 1;">
            <title>Thankful</title>
        </path>
        <path d="M-310.16421979663653,236.4279102769885A390,390,0,0,1,-327.35251619146055,211.99134450047612L-212.62169626092123,137.69241728987316A253.3124306069483,253.3124306069483,0,0,0,-201.45757026665066,153.564432347655Z" style="fill: rgb(138, 182, 142); stroke: rgb(255, 255, 255); stroke-width: 1;">
            <title>Loving</title>
        </path>
        <path d="M-327.35251619146055,211.99134450047612A390,390,0,0,1,-342.6197778552676,186.31072921978233L-222.53807359623212,121.01236837645142A253.3124306069483,253.3124306069483,0,0,0,-212.62169626092123,137.69241728987316Z" style="fill: rgb(134, 182, 145); stroke: rgb(255, 255, 255); stroke-width: 1;">
            <title>Creative</title>
        </path>
        <path d="M-342.6197778552676,186.31072921978233A390,390,0,0,1,-355.8764104258546,159.5367684968223L-231.14850902730552,103.62217076694378A253.3124306069483,253.3124306069483,0,0,0,-222.53807359623212,121.01236837645142Z" style="fill: rgb(130, 183, 148); stroke: rgb(255, 255, 255); stroke-width: 1;">
            <title>Courageous</title>
        </path>
        <path d="M-355.8764104258546,159.5367684968223A390,390,0,0,1,-367.04461871202915,131.82658257931575L-238.40247309524275,85.62387705583093A253.3124306069483,253.3124306069483,0,0,0,-231.14850902730552,103.62217076694378Z" style="fill: rgb(126, 183, 152); stroke: rgb(255, 255, 255); stroke-width: 1;">
            <title>Valued</title>
        </path>
        <path d="M-367.04461871202915,131.82658257931575A390,390,0,0,1,-376.0588632267251,103.34278585669766L-244.2573966544812,67.12310838731652A253.3124306069483,253.3124306069483,0,0,0,-238.40247309524275,85.62387705583093Z" style="fill: rgb(122, 184, 155); stroke: rgb(255, 255, 255); stroke-width: 1;">
            <title>Respected</title>
        </path>
        <path d="M-376.0588632267251,103.34278585669766A390,390,0,0,1,-382.8662447987735,74.2525325742202L-248.67892068546718,48.22843462845467A253.3124306069483,253.3124306069483,0,0,0,-244.2573966544812,67.12310838731652Z" style="fill: rgb(118, 184, 159); stroke: rgb(255, 255, 255); stroke-width: 1;">
            <title>Confident</title>
        </path>
        <path d="M-382.8662447987735,74.2525325742202A390,390,0,0,1,-387.42681500627333,44.72653590537563L-251.64109792704517,29.05073723799909A253.3124306069483,253.3124306069483,0,0,0,-248.67892068546718,48.22843462845467Z" style="fill: rgb(114, 185, 163); stroke: rgb(255, 255, 255); stroke-width: 1;">
            <title>Successful</title>
        </path>
        <path d="M-387.42681500627333,44.72653590537563A390,390,0,0,1,-389.71381060981594,14.938066139113173L-253.1265451453036,9.702558569913103A253.3124306069483,253.3124306069483,0,0,0,-251.64109792704517,29.05073723799909Z" style="fill: rgb(111, 185, 166); stroke: rgb(255, 255, 255); stroke-width: 1;">
            <title>Inquisitive</title>
        </path>
        <path d="M-389.71381060981594,14.938066139113173A390,390,0,0,1,-389.7138106098159,-14.938066139114465L-253.12654514530357,-9.702558569913942A253.3124306069483,253.3124306069483,0,0,0,-253.1265451453036,9.702558569913103Z" style="fill: rgb(107, 185, 170); stroke: rgb(255, 255, 255); stroke-width: 1;">
            <title>Curious</title>
        </path>
        <path d="M-389.7138106098159,-14.938066139114468A390,390,0,0,1,-387.4268150062732,-44.726535905376565L-251.64109792704508,-29.050737237999698A253.3124306069483,253.3124306069483,0,0,0,-253.12654514530357,-9.702558569913947Z" style="fill: rgb(104, 185, 174); stroke: rgb(255, 255, 255); stroke-width: 1;">
            <title>Joyful</title>
        </path>
        <path d="M-231.14850902730552,103.62217076694378A253.3124306069483,253.3124306069483,0,0,1,-244.2573966544812,67.12310838731652L-132.95688615646085,36.537192332990074A137.88582233137677,137.88582233137677,0,0,0,-125.82131153822439,56.40476542634571Z" style="fill: rgb(0, 196, 131); stroke: rgb(255, 255, 255); stroke-width: 1;">
            <title>Accepted</title>
        </path>
        <path d="M-244.2573966544812,67.12310838731652A253.3124306069483,253.3124306069483,0,0,1,-251.64109792704517,29.05073723799909L-136.97606405222098,15.813218418837353A137.88582233137677,137.88582233137677,0,0,0,-132.95688615646085,36.537192332990074Z" style="fill: rgb(0, 197, 148); stroke: rgb(255, 255, 255); stroke-width: 1;">
            <title>Proud</title>
        </path>
        <path d="M-212.62169626092123,137.69241728987316A253.3124306069483,253.3124306069483,0,0,1,-231.14850902730552,103.62217076694378L-125.82131153822439,56.40476542634572A137.88582233137677,137.88582233137677,0,0,0,-115.73659201873043,74.9502586245701Z" style="fill: rgb(54, 194, 114); stroke: rgb(255, 255, 255); stroke-width: 1;">
            <title>Powerful</title>
        </path>
        <path d="M-57.718126162575935,246.649154493343A253.3124306069483,253.3124306069483,0,0,1,-94.69251107035754,234.94790028257376L-51.54407435227185,127.88943818457986A137.88582233137677,137.88582233137677,0,0,0,-31.41776844619892,134.258794221686Z" style="fill: rgb(170, 178, 53); stroke: rgb(255, 255, 255); stroke-width: 1;">
            <title>Vulnerable</title>
        </path>
        <path d="M-94.69251107035754,234.94790028257376A253.3124306069483,253.3124306069483,0,0,1,-129.44738377630074,217.73966642178706L-70.46223084225917,118.52246211048849A137.88582233137677,137.88582233137677,0,0,0,-51.54407435227185,127.88943818457986Z" style="fill: rgb(152, 183, 61); stroke: rgb(255, 255, 255); stroke-width: 1;">
            <title>Lonely</title>
        </path>
        <path d="M-129.44738377630054,217.7396664217872A253.3124306069483,253.3124306069483,0,0,1,-161.16811952104212,195.42779932765728L-87.72881236232132,106.37741997950795A137.88582233137677,137.88582233137677,0,0,0,-70.46223084225906,118.52246211048856Z" style="fill: rgb(133, 186, 72); stroke: rgb(255, 255, 255); stroke-width: 1;">
            <title>Optimistic</title>
        </path>
        <path d="M-161.16811952104212,195.42779932765728A253.3124306069483,253.3124306069483,0,0,1,-189.1112111439741,168.535270254209L-102.93910487610408,91.73898128552796A137.88582233137677,137.88582233137677,0,0,0,-87.72881236232132,106.37741997950795Z" style="fill: rgb(112, 190, 85); stroke: rgb(255, 255, 255); stroke-width: 1;">
            <title>Trusting</title>
        </path>
        <path d="M-189.1112111439741,168.535270254209A253.3124306069483,253.3124306069483,0,0,1,-212.62169626092123,137.69241728987316L-115.73659201873043,74.9502586245701A137.88582233137677,137.88582233137677,0,0,0,-102.93910487610408,91.73898128552794Z" style="fill: rgb(88, 192, 99); stroke: rgb(255, 255, 255); stroke-width: 1;">
            <title>Peaceful</title>
        </path>
        <path d="M-251.64109792704517,29.05073723799909A253.3124306069483,253.3124306069483,0,0,1,-253.12654514530357,-9.702558569913942L-137.78463910212537,-5.281403932390494A137.88582233137677,137.88582233137677,0,0,0,-136.97606405222098,15.813218418837353Z" style="fill: rgb(0, 198, 165); stroke: rgb(255, 255, 255); stroke-width: 1;">
            <title>Interested</title>
        </path>
        <path d="M-253.12654514530357,-9.702558569913942A253.3124306069483,253.3124306069483,0,0,1,-248.67892068546706,-48.22843462845527L-135.3636589923207,-26.252234651753383A137.88582233137677,137.88582233137677,0,0,0,-137.78463910212537,-5.281403932390494Z" style="fill: rgb(0, 199, 182); stroke: rgb(255, 255, 255); stroke-width: 1;">
            <title>Content</title>
        </path>
        <path d="M-248.67892068546706,-48.22843462845527A253.3124306069483,253.3124306069483,0,0,1,-238.40247309524256,-85.6238770558315L-129.76986944465318,-46.60773524124159A137.88582233137677,137.88582233137677,0,0,0,-135.3636589923207,-26.252234651753383Z" style="fill: rgb(0, 199, 199); stroke: rgb(255, 255, 255); stroke-width: 1;">
            <title>Playful</title>
        </path>
        <path d="M-238.4024730952427,-85.62387705583109A253.3124306069483,253.3124306069483,0,0,1,-222.53807359623204,-121.01236837645158L-121.13438414504408,-65.87079001955945A137.88582233137677,137.88582233137677,0,0,0,-129.76986944465324,-46.607735241241365Z" style="fill: rgb(0, 198, 216); stroke: rgb(255, 255, 255); stroke-width: 1;">
            <title>Excited</title>
        </path>
        <path d="M-222.53807359623204,-121.01236837645158A253.3124306069483,253.3124306069483,0,0,1,-201.45757026665044,-153.5644323476553L-109.65961154981814,-83.58988930931177A137.88582233137677,137.88582233137677,0,0,0,-121.13438414504408,-65.87079001955945Z" style="fill: rgb(0, 197, 231); stroke: rgb(255, 255, 255); stroke-width: 1;">
            <title>Amazed</title>
        </path>
        <path d="M-201.45757026665044,-153.5644323476553A253.3124306069483,253.3124306069483,0,0,1,-175.6550722375372,-182.51707617980733L-95.61451060304125,-99.34971244115866A137.88582233137677,137.88582233137677,0,0,0,-109.65961154981814,-83.58988930931177Z" style="fill: rgb(0, 196, 245); stroke: rgb(255, 255, 255); stroke-width: 1;">
            <title>Confused</title>
        </path>
        <path d="M-175.6550722375372,-182.51707617980733A253.3124306069483,253.3124306069483,0,0,1,-145.73536819351156,-207.1916744406049L-79.32828656683031,-112.78086251829629A137.88582233137677,137.88582233137677,0,0,0,-95.61451060304125,-99.34971244115866Z" style="fill: rgb(0, 194, 255); stroke: rgb(255, 255, 255); stroke-width: 1;">
            <title>Startled</title>
        </path>
        <path d="M88.86286847222371,-379.7412153123338A390,390,0,0,1,117.67103345212503,-371.82459290142293L76.42957819433158,-241.50715740332947A253.3124306069483,253.3124306069483,0,0,0,57.71812616257575,-246.64915449334302Z" style="fill: rgb(158, 169, 219); stroke: rgb(255, 255, 255); stroke-width: 1;">
            <title>Worried</title>
        </path>
        <path d="M117.67103345212503,-371.82459290142293A390,390,0,0,1,145.78865801789982,-361.7259559298169L94.69251107035736,-234.9479002825738A253.3124306069483,253.3124306069483,0,0,0,76.42957819433158,-241.50715740332947Z" style="fill: rgb(163, 168, 218); stroke: rgb(255, 255, 255); stroke-width: 1;">
            <title>Inadequate</title>
        </path>
        <path d="M145.78865801789982,-361.7259559298169A390,390,0,0,1,173.05073676811435,-349.50456721481163L112.39975063860062,-227.00987546003455A253.3124306069483,253.3124306069483,0,0,0,94.69251107035736,-234.9479002825738Z" style="fill: rgb(168, 166, 216); stroke: rgb(255, 255, 255); stroke-width: 1;">
            <title>Inferior</title>
        </path>
        <path d="M173.05073676811435,-349.50456721481163A390,390,0,0,1,199.29728498437302,-335.2321467250085L129.44738377630048,-217.73966642178723A253.3124306069483,253.3124306069483,0,0,0,112.39975063860062,-227.00987546003455Z" style="fill: rgb(173, 165, 215); stroke: rgb(255, 255, 255); stroke-width: 1;">
            <title>Worthless</title>
        </path>
        <path d="M-145.73536819351176,-207.1916744406048A253.3124306069483,253.3124306069483,0,0,1,-112.39975063860065,-227.00987546003455L-61.18267472903095,-123.56852476663141A137.88582233137677,137.88582233137677,0,0,0,-79.32828656683041,-112.78086251829623Z" style="fill: rgb(0, 192, 255); stroke: rgb(255, 255, 255); stroke-width: 1;">
            <title>Tired</title>
        </path>
        <path d="M-112.39975063860065,-227.00987546003455A253.3124306069483,253.3124306069483,0,0,1,-76.42957819433155,-241.50715740332947L-41.60299285161333,-131.45984552626177A137.88582233137677,137.88582233137677,0,0,0,-61.18267472903095,-123.56852476663141Z" style="fill: rgb(0, 188, 255); stroke: rgb(255, 255, 255); stroke-width: 1;">
            <title>Stressed</title>
        </path>
        <path d="M-76.42957819433155,-241.50715740332947A253.3124306069483,253.3124306069483,0,0,1,-38.66796121589388,-250.343716269065L-21.048172082815515,-136.26985892695487A137.88582233137677,137.88582233137677,0,0,0,-41.60299285161333,-131.45984552626177Z" style="fill: rgb(0, 185, 255); stroke: rgb(255, 255, 255); stroke-width: 1;">
            <title>Busy</title>
        </path>
        <path d="M-38.66796121589388,-250.343716269065A253.3124306069483,253.3124306069483,0,0,1,-4.653273859905529e-14,-253.3124306069483L-2.5329214644888177e-14,-137.88582233137677A137.88582233137677,137.88582233137677,0,0,0,-21.048172082815515,-136.26985892695487Z" style="fill: rgb(0, 180, 255); stroke: rgb(255, 255, 255); stroke-width: 1;">
            <title>Bored</title>
        </path>
        <path d="M2.388061258337339e-14,-390A390,390,0,0,1,29.854208606233307,-388.85566246165877L19.39087729715855,-252.56916157291758A253.3124306069483,253.3124306069483,0,0,0,1.5510912866351764e-14,-253.3124306069483Z" style="fill: rgb(142, 173, 221); stroke: rgb(255, 255, 255); stroke-width: 1;">
            <title>Helpless</title>
        </path>
        <path d="M29.854208606233307,-388.85566246165877A390,390,0,0,1,59.53322084536104,-385.4293652743359L38.66796121589397,-250.343716269065A253.3124306069483,253.3124306069483,0,0,0,19.39087729715855,-252.56916157291758Z" style="fill: rgb(147, 172, 220); stroke: rgb(255, 255, 255); stroke-width: 1;">
            <title>Frightened</title>
        </path>
        <path d="M59.53322084536103,-385.4293652743359A390,390,0,0,1,88.86286847222371,-379.7412153123338L57.71812616257574,-246.64915449334302A253.3124306069483,253.3124306069483,0,0,0,38.66796121589397,-250.343716269065Z" style="fill: rgb(153, 170, 220); stroke: rgb(255, 255, 255); stroke-width: 1;">
            <title>Overwhelmed</title>
        </path>
        <path d="M199.29728498437302,-335.2321467250085A390,390,0,0,1,224.37427748526207,-318.99245069901986L145.73536819351182,-207.19167444060474A253.3124306069483,253.3124306069483,0,0,0,129.44738377630048,-217.73966642178723Z" style="fill: rgb(178, 164, 213); stroke: rgb(255, 255, 255); stroke-width: 1;">
            <title>Insignificant</title>
        </path>
        <path d="M224.37427748526207,-318.99245069901986A390,390,0,0,1,248.13455250735836,-300.8807801305577L161.16811952104203,-195.42779932765737A253.3124306069483,253.3124306069483,0,0,0,145.73536819351182,-207.19167444060474Z" style="fill: rgb(183, 163, 211); stroke: rgb(255, 255, 255); stroke-width: 1;">
            <title>Excluded</title>
        </path>
        <path d="M248.13455250735836,-300.8807801305577A390,390,0,0,1,270.43867530897427,-281.00342150430697L175.65507223753735,-182.5170761798072A253.3124306069483,253.3124306069483,0,0,0,161.16811952104203,-195.42779932765737Z" style="fill: rgb(187, 161, 208); stroke: rgb(255, 255, 255); stroke-width: 1;">
            <title>Persecuted</title>
        </path>
        <path d="M270.43867530897427,-281.00342150430697A390,390,0,0,1,291.1557564286654,-259.4770230645705L189.111211143974,-168.53527025420908A253.3124306069483,253.3124306069483,0,0,0,175.65507223753735,-182.5170761798072Z" style="fill: rgb(191, 160, 206); stroke: rgb(255, 255, 255); stroke-width: 1;">
            <title>Nervous</title>
        </path>
        <path d="M291.1557564286654,-259.4770230645705A390,390,0,0,1,310.16421979663636,-236.4279102769888L201.45757026665052,-153.5644323476552A253.3124306069483,253.3124306069483,0,0,0,189.111211143974,-168.53527025420908Z" style="fill: rgb(195, 159, 203); stroke: rgb(255, 255, 255); stroke-width: 1;">
            <title>Exposed</title>
        </path>
        <path d="M310.1642197966363,-236.42791027698885A390,390,0,0,1,327.35251619146044,-211.9913445004763L212.62169626092114,-137.69241728987328A253.3124306069483,253.3124306069483,0,0,0,201.4575702666505,-153.5644323476552Z" style="fill: rgb(199, 158, 200); stroke: rgb(255, 255, 255); stroke-width: 1;">
            <title>Betrayed</title>
        </path>
        <path d="M327.35251619146044,-211.9913445004763A390,390,0,0,1,342.61977785526756,-186.31072921978253L222.53807359623207,-121.01236837645155A253.3124306069483,253.3124306069483,0,0,0,212.62169626092114,-137.69241728987328Z" style="fill: rgb(203, 157, 197); stroke: rgb(255, 255, 255); stroke-width: 1;">
            <title>Resentful</title>
        </path>
        <path d="M342.61977785526756,-186.31072921978253A390,390,0,0,1,355.8764104258545,-159.5367684968226L231.14850902730544,-103.62217076694397A253.3124306069483,253.3124306069483,0,0,0,222.53807359623207,-121.01236837645155Z" style="fill: rgb(206, 156, 194); stroke: rgb(255, 255, 255); stroke-width: 1;">
            <title>Disrespected</title>
        </path>
        <path d="M355.8764104258545,-159.5367684968226A390,390,0,0,1,367.04461871202903,-131.82658257931604L238.4024730952427,-85.62387705583112A253.3124306069483,253.3124306069483,0,0,0,231.14850902730544,-103.62217076694397Z" style="fill: rgb(209, 155, 190); stroke: rgb(255, 255, 255); stroke-width: 1;">
            <title>Ridiculed</title>
        </path>
        <path d="M367.04461871202903,-131.82658257931604A390,390,0,0,1,376.058863226725,-103.34278585669803L244.2573966544811,-67.12310838731676A253.3124306069483,253.3124306069483,0,0,0,238.4024730952427,-85.62387705583112Z" style="fill: rgb(211, 154, 187); stroke: rgb(255, 255, 255); stroke-width: 1;">
            <title>Indignant</title>
        </path>
        <path d="M376.058863226725,-103.34278585669803A390,390,0,0,1,382.86624479877344,-74.25253257422058L248.67892068546715,-48.22843462845492A253.3124306069483,253.3124306069483,0,0,0,244.2573966544811,-67.12310838731676Z" style="fill: rgb(214, 154, 183); stroke: rgb(255, 255, 255); stroke-width: 1;">
            <title>Violated</title>
        </path>
        <path d="M382.86624479877344,-74.25253257422065A390,390,0,0,1,387.4268150062733,-44.72653590537618L251.6410979270451,-29.050737237999453A253.3124306069483,253.3124306069483,0,0,0,248.67892068546712,-48.22843462845497Z" style="fill: rgb(216, 153, 179); stroke: rgb(255, 255, 255); stroke-width: 1;">
            <title>Furious</title>
        </path>
        <path d="M387.4268150062733,-44.72653590537618A390,390,0,0,1,389.7138106098159,-14.93806613911382L253.12654514530357,-9.702558569913522A253.3124306069483,253.3124306069483,0,0,0,251.6410979270451,-29.050737237999453Z" style="fill: rgb(218, 153, 176); stroke: rgb(255, 255, 255); stroke-width: 1;">
            <title>Jealous</title>
        </path>
        <path d="M389.7138106098159,-14.93806613911382A390,390,0,0,1,389.7138106098159,14.93806613911382L253.12654514530357,9.702558569913522A253.3124306069483,253.3124306069483,0,0,0,253.12654514530357,-9.702558569913522Z" style="fill: rgb(219, 153, 172); stroke: rgb(255, 255, 255); stroke-width: 1;">
            <title>Provoked</title>
        </path>
        <path d="M389.7138106098159,14.93806613911382A390,390,0,0,1,387.4268150062733,44.72653590537618L251.6410979270451,29.050737237999453A253.3124306069483,253.3124306069483,0,0,0,253.12654514530357,9.702558569913522Z" style="fill: rgb(220, 153, 168); stroke: rgb(255, 255, 255); stroke-width: 1;">
            <title>Hostile</title>
        </path>
        <path d="M387.4268150062733,44.72653590537618A390,390,0,0,1,382.86624479877344,74.25253257422074L248.67892068546712,48.22843462845503A253.3124306069483,253.3124306069483,0,0,0,251.6410979270451,29.050737237999453Z" style="fill: rgb(221, 153, 165); stroke: rgb(255, 255, 255); stroke-width: 1;">
            <title>Infuriated</title>
        </path>
        <path d="M382.86624479877344,74.25253257422074A390,390,0,0,1,376.058863226725,103.34278585669811L244.2573966544811,67.12310838731682A253.3124306069483,253.3124306069483,0,0,0,248.67892068546712,48.22843462845503Z" style="fill: rgb(221, 153, 161); stroke: rgb(255, 255, 255); stroke-width: 1;">
            <title>Annoyed</title>
        </path>
        <path d="M376.058863226725,103.34278585669811A390,390,0,0,1,367.044618712029,131.8265825793162L238.40247309524264,85.62387705583123A253.3124306069483,253.3124306069483,0,0,0,244.2573966544811,67.12310838731682Z" style="fill: rgb(222, 153, 157); stroke: rgb(255, 255, 255); stroke-width: 1;">
            <title>Withdrawn</title>
        </path>
        <path d="M-355.87641042585454,-159.53676849682253A390,390,0,0,1,-342.6197778552675,-186.3107292197826L-222.53807359623204,-121.01236837645158A253.3124306069483,253.3124306069483,0,0,0,-231.14850902730547,-103.62217076694394Z" style="fill: rgb(95, 185, 192); stroke: rgb(255, 255, 255); stroke-width: 1;">
            <title>Eager</title>
        </path>
        <path d="M-342.6197778552675,-186.3107292197826A390,390,0,0,1,-327.35251619146044,-211.99134450047634L-212.62169626092114,-137.6924172898733A253.3124306069483,253.3124306069483,0,0,0,-222.53807359623204,-121.01236837645158Z" style="fill: rgb(95, 184, 196); stroke: rgb(255, 255, 255); stroke-width: 1;">
            <title>Awe</title>
        </path>
        <path d="M-387.4268150062732,-44.726535905376565A390,390,0,0,1,-382.8662447987733,-74.25253257422112L-248.67892068546706,-48.22843462845527A253.3124306069483,253.3124306069483,0,0,0,-251.64109792704508,-29.050737237999698Z" style="fill: rgb(102, 185, 178); stroke: rgb(255, 255, 255); stroke-width: 1;">
            <title>Free</title>
        </path>
        <path d="M-382.8662447987733,-74.25253257422112A390,390,0,0,1,-376.05886322672484,-103.34278585669857L-244.25739665448103,-67.12310838731712A253.3124306069483,253.3124306069483,0,0,0,-248.67892068546706,-48.22843462845527Z" style="fill: rgb(99, 185, 182); stroke: rgb(255, 255, 255); stroke-width: 1;">
            <title>Cheeky</title>
        </path>
        <path d="M-376.05886322672484,-103.34278585669857A390,390,0,0,1,-367.0446187120288,-131.82658257931664L-238.40247309524256,-85.6238770558315A253.3124306069483,253.3124306069483,0,0,0,-244.25739665448103,-67.12310838731712Z" style="fill: rgb(97, 185, 185); stroke: rgb(255, 255, 255); stroke-width: 1;">
            <title>Aroused</title>
        </path>
        <path d="M-367.04461871202903,-131.82658257931598A390,390,0,0,1,-355.87641042585454,-159.53676849682253L-231.14850902730547,-103.62217076694392A253.3124306069483,253.3124306069483,0,0,0,-238.4024730952427,-85.62387705583109Z" style="fill: rgb(96, 185, 189); stroke: rgb(255, 255, 255); stroke-width: 1;">
            <title>Energetic</title>
        </path>
        <g transform="">
            <text text-anchor="middle" dominant-baseline="central" fill="rgb(0, 0, 0)">Feelings</text>
        </g>
        <g transform="translate(45.76655960083008, -76.98259735107422) rotate(-59.268292057200604) skewX(-3.1805546527545665e-15) scale(1.0000000090263974,1.0000000090263974)">
            <text text-anchor="middle" dominant-baseline="central" fill="rgb(0, 0, 0)">Fearful</text>
        </g>
        <g transform="translate(89.4937515258789, 3.430372476577759) rotate(2.195121939834979) scale(1.00000002617896,1.00000002617896)">
            <text text-anchor="middle" dominant-baseline="central" fill="rgb(0, 0, 0)">Angry</text>
        </g>
        <g transform="translate(56.981536865234375, 69.09416198730469) rotate(50.487805414592636) skewX(3.1805546105700876e-15) scale(1.0000000222896437,1.0000000222896437)">
            <text text-anchor="middle" dominant-baseline="central" fill="rgb(0, 0, 0)">Disgusted</text>
        </g>
        <g transform="translate(-6.855710506439209, 89.29668426513672) rotate(-85.60974103171296) scale(1.000000001496204,1.000000001496204)">
            <text text-anchor="middle" dominant-baseline="central" fill="rgb(0, 0, 0)">Sad</text>
        </g>
        <g transform="translate(-84.28800201416016, 30.272611618041992) rotate(-19.756104414021017) skewX(0) scale(0.9999999877827167,0.9999999877827167)">
            <text text-anchor="middle" dominant-baseline="central" fill="rgb(0, 0, 0)">Happy</text>
        </g>
        <g transform="translate(-71.22600555419922, -54.2932243347168) rotate(37.31707945757466) scale(0.999999987362857,0.999999987362857)">
            <text text-anchor="middle" dominant-baseline="central" fill="rgb(0, 0, 0)">Surprised</text>
        </g>
        <g transform="translate(-27.021936416625977, -85.38567352294922) rotate(72.43902631124017) scale(0.9999999766904215,0.9999999766904215)">
            <text text-anchor="middle" dominant-baseline="central" fill="rgb(0, 0, 0)">Bad</text>
        </g>
        <g transform="translate(14.751140594482422, -192.1358642578125) rotate(-85.60975635454602) skewX(0) scale(0.99999998096406,0.99999998096406)">
            <text text-anchor="middle" dominant-baseline="central" fill="rgb(0, 0, 0)">Scared</text>
        </g>
        <g transform="translate(153.25396728515625, 116.82041931152344) rotate(37.31707467125708) scale(0.9999999986321502,0.9999999986321502)">
            <text text-anchor="middle" dominant-baseline="central" fill="rgb(0, 0, 0)">Disapproving</text>
        </g>
        <g transform="translate(133.62533569335938, 138.84544372558594) rotate(46.09755963225594) scale(0.9999999887712024,0.9999999887712024)">
            <text text-anchor="middle" dominant-baseline="central" fill="rgb(0, 0, 0)">Disappointed</text>
        </g>
        <g transform="translate(110.86465454101562, 157.6160430908203) rotate(54.878046095006816) skewX(3.1805547060130902e-15) scale(0.9999999922813547,0.9999999922813547)">
            <text text-anchor="middle" dominant-baseline="central" fill="rgb(0, 0, 0)">Awful</text>
        </g>
        <g transform="translate(85.50538635253906, 172.6922607421875) rotate(63.658535065892394) skewX(-3.1805546652747547e-15) scale(1.0000000050899178,1.0000000050899178)">
            <text text-anchor="middle" dominant-baseline="central" fill="rgb(0, 0, 0)">Repelled</text>
        </g>
        <g transform="translate(58.14194869995117, 183.72071838378906) rotate(72.43902631124017) scale(0.9999999766904215,0.9999999766904215)">
            <text text-anchor="middle" dominant-baseline="central" fill="rgb(0, 0, 0)">Hurt</text>
        </g>
        <g transform="translate(43.90766525268555, -187.6323699951172) rotate(-76.82926967330623) scale(1.000000028359408,1.000000028359408)">
            <text text-anchor="middle" dominant-baseline="central" fill="rgb(0, 0, 0)">Anxious</text>
        </g>
        <g transform="translate(72.0350341796875, -178.73092651367188) rotate(-68.04878135508687) scale(0.9999999962982771,0.9999999962982771)">
            <text text-anchor="middle" dominant-baseline="central" fill="rgb(0, 0, 0)">Insecure</text>
        </g>
        <g transform="translate(98.47396087646484, -165.6401824951172) rotate(-59.268292057200604) skewX(-3.1805546527545665e-15) scale(1.0000000090263974,1.0000000090263974)">
            <text text-anchor="middle" dominant-baseline="central" fill="rgb(0, 0, 0)">Weak</text>
        </g>
        <g transform="translate(122.60474395751953, -148.66696166992188) rotate(-50.487805414592636) skewX(-3.1805546105700876e-15) scale(1.0000000222896437,1.0000000222896437)">
            <text text-anchor="middle" dominant-baseline="central" fill="rgb(0, 0, 0)">Rejected</text>
        </g>
        <g transform="translate(143.8617706298828, -128.20912170410156) rotate(-41.70731633391503) skewX(-3.180554630295889e-15) scale(1.000000016087643,1.000000016087643)">
            <text text-anchor="middle" dominant-baseline="central" fill="rgb(0, 0, 0)">Threatened</text>
        </g>
        <g transform="translate(161.74681091308594, -104.74617004394531) rotate(-32.92682880978611) scale(0.9999999907595143,0.9999999907595143)">
            <text text-anchor="middle" dominant-baseline="central" fill="rgb(0, 0, 0)">Let-down</text>
        </g>
        <g transform="translate(175.8406219482422, -78.82805633544922) rotate(-24.14634220623128) scale(0.9999999878876141,0.9999999878876141)">
            <text text-anchor="middle" dominant-baseline="central" fill="rgb(0, 0, 0)">Humiliated</text>
        </g>
        <g transform="translate(185.81289672851562, -51.062278747558594) rotate(-15.365854148869984) skewX(3.1805547077940202e-15) scale(0.9999999917214115,0.9999999917214115)">
            <text text-anchor="middle" dominant-baseline="central" fill="rgb(0, 0, 0)">Bitter</text>
        </g>
        <g transform="translate(191.42987060546875, -22.09964370727539) rotate(-6.585366110342688) skewX(-7.951386906959871e-16) scale(0.9999999744319975,0.9999999744319976)">
            <text text-anchor="middle" dominant-baseline="central" fill="rgb(0, 0, 0)">Mad</text>
        </g>
        <g transform="translate(192.5598907470703, 7.380986213684082) rotate(2.195121939834979) scale(1.00000002617896,1.00000002617896)">
            <text text-anchor="middle" dominant-baseline="central" fill="rgb(0, 0, 0)">Aggressive</text>
        </g>
        <g transform="translate(189.1764678955078, 36.68861389160156) rotate(10.97560940946545) scale(1.000000027145229,1.000000027145229)">
            <text text-anchor="middle" dominant-baseline="central" fill="rgb(0, 0, 0)">Frustrated</text>
        </g>
        <g transform="translate(181.35890197753906, 65.13629150390625) rotate(19.75609683149676) skewX(-3.180554670063531e-15) scale(1.000000003584276,1.000000003584276)">
            <text text-anchor="middle" dominant-baseline="central" fill="rgb(0, 0, 0)">Distant</text>
        </g>
        <g transform="translate(169.2904510498047, 92.0572280883789) rotate(28.536584778802645) skewX(-3.18055465433817e-15) scale(1.0000000085284957,1.0000000085284957)">
            <text text-anchor="middle" dominant-baseline="central" fill="rgb(0, 0, 0)">Critical</text>
        </g>
        <g transform="translate(29.415714263916016, 190.4429168701172) rotate(81.21951301262622) scale(0.9999999894529967,0.9999999894529967)">
            <text text-anchor="middle" dominant-baseline="central" fill="rgb(0, 0, 0)">Depressed</text>
        </g>
        <g transform="translate(-1.593535823045042e-13, 192.7012939453125) rotate(-90.00000000000003)">
            <text text-anchor="middle" dominant-baseline="central" fill="rgb(0, 0, 0)">Guilty</text>
        </g>
        <g transform="translate(-29.415714263916016, 190.4429168701172) rotate(-81.21951301262622) scale(0.9999999894529967,0.9999999894529967)">
            <text text-anchor="middle" dominant-baseline="central" fill="rgb(0, 0, 0)">Despair</text>
        </g>
        <g transform="translate(296.0682067871094, 119.32620239257812) rotate(21.951220228667417) scale(1.000000007438894,1.000000007438894)">
            <text text-anchor="middle" dominant-baseline="central" fill="rgb(0, 0, 0)">Numb</text>
        </g>
        <g transform="translate(286.06512451171875, 141.63987731933594) rotate(26.341463403862534) scale(0.9999999918660358,0.9999999918660358)">
            <text text-anchor="middle" dominant-baseline="central" fill="rgb(0, 0, 0)">Sceptical</text>
        </g>
        <g transform="translate(274.3833312988281, 163.12234497070312) rotate(30.731707942799392) skewX(-3.1805546527545665e-15) scale(1.0000000090263974,1.0000000090263974)">
            <text text-anchor="middle" dominant-baseline="central" fill="rgb(0, 0, 0)">Dismissive</text>
        </g>
        <g transform="translate(261.0913391113281, 183.64755249023438) rotate(35.121953904993184) skewX(-3.1805547060130902e-15) scale(0.9999999922813547,0.9999999922813547)">
            <text text-anchor="middle" dominant-baseline="central" fill="rgb(0, 0, 0)">Judgmental</text>
        </g>
        <g transform="translate(246.2671661376953, 203.0950469970703) rotate(39.512194585407364) skewX(-3.1805546105700876e-15) scale(1.0000000222896437,1.0000000222896437)">
            <text text-anchor="middle" dominant-baseline="central" fill="rgb(0, 0, 0)">Embarrassed</text>
        </g>
        <g transform="translate(229.997802734375, 221.35069274902344) rotate(43.90244036774406) scale(0.9999999887712024,0.9999999887712024)">
            <text text-anchor="middle" dominant-baseline="central" fill="rgb(0, 0, 0)">Appalled</text>
        </g>
        <g transform="translate(212.3787078857422, 238.30735778808594) rotate(48.292683666084976) skewX(-3.180554630295889e-15) scale(1.000000016087643,1.000000016087643)">
            <text text-anchor="middle" dominant-baseline="central" fill="rgb(0, 0, 0)">Revolted</text>
        </g>
        <g transform="translate(193.5133056640625, 253.8655548095703) rotate(52.68292532874292) scale(0.9999999986321502,0.9999999986321502)">
            <text text-anchor="middle" dominant-baseline="central" fill="rgb(0, 0, 0)">Nauseated</text>
        </g>
        <g transform="translate(173.5122833251953, 267.9339599609375) rotate(57.0731711902139) scale(0.9999999907595143,0.9999999907595143)">
            <text text-anchor="middle" dominant-baseline="central" fill="rgb(0, 0, 0)">Detestable</text>
        </g>
        <g transform="translate(152.49301147460938, 280.4300231933594) rotate(61.46341372109616) scale(1.0000000227656558,1.0000000227656558)">
            <text text-anchor="middle" dominant-baseline="central" fill="rgb(0, 0, 0)">Horrified</text>
        </g>
        <g transform="translate(130.578857421875, 291.2804260253906) rotate(65.85366074891984) scale(1.0000000300858733,1.0000000300858733)">
            <text text-anchor="middle" dominant-baseline="central" fill="rgb(0, 0, 0)">Hesitant</text>
        </g>
        <g transform="translate(107.8984146118164, 300.42144775390625) rotate(70.24390477554441) skewX(-3.180554702103444e-15) scale(0.9999999935105888,0.9999999935105888)">
            <text text-anchor="middle" dominant-baseline="central" fill="rgb(0, 0, 0)">Embarrassed</text>
        </g>
        <g transform="translate(84.58478546142578, 307.79949951171875) rotate(74.6341474976385) skewX(3.180554732911065e-15) scale(0.9999999838243475,0.9999999838243475)">
            <text text-anchor="middle" dominant-baseline="central" fill="rgb(0, 0, 0)">Disapointed</text>
        </g>
        <g transform="translate(60.77477264404297, 313.3712463378906) rotate(79.02439142869122) skewX(-1.5902773020750104e-15) scale(1.0000000243081806,1.0000000243081806)">
            <text text-anchor="middle" dominant-baseline="central" fill="rgb(0, 0, 0)">Inferior</text>
        </g>
        <g transform="translate(36.60811233520508, 317.1040344238281) rotate(83.41463473779787) scale(0.9999999727230814,0.9999999727230814)">
            <text text-anchor="middle" dominant-baseline="central" fill="rgb(0, 0, 0)">Empty</text>
        </g>
        <g transform="translate(12.226621627807617, 318.97589111328125) rotate(87.8048782734518) scale(1.0000000260362714,1.0000000260362714)">
            <text text-anchor="middle" dominant-baseline="central" fill="rgb(0, 0, 0)">Remorseful</text>
        </g>
        <g transform="translate(-12.226621627807617, 318.97589111328125) rotate(-87.80487046431996) skewX(-3.9756934646907016e-16) scale(0.9999999716121711,0.9999999716121711)">
            <text text-anchor="middle" dominant-baseline="central" fill="rgb(0, 0, 0)">Ashamed</text>
        </g>
        <g transform="translate(-36.60811233520508, 317.1040344238281) rotate(-83.4146423386469) scale(1.0000000174086825,1.0000000174086825)">
            <text text-anchor="middle" dominant-baseline="central" fill="rgb(0, 0, 0)">Powerless</text>
        </g>
        <g transform="translate(-60.77477264404297, 313.3712463378906) rotate(-79.02438323507732) skewX(-1.590277354523837e-15) scale(0.9999999913272496,0.9999999913272496)">
            <text text-anchor="middle" dominant-baseline="central" fill="rgb(0, 0, 0)">Grief</text>
        </g>
        <g transform="translate(-84.58478546142578, 307.79949951171875) rotate(-74.63415498860907) scale(1.0000000097100892,1.0000000097100892)">
            <text text-anchor="middle" dominant-baseline="central" fill="rgb(0, 0, 0)">Fragile</text>
        </g>
        <g transform="translate(-107.8984146118164, 300.42144775390625) rotate(-70.24389558597899) scale(0.9999999877827167,0.9999999877827167)">
            <text text-anchor="middle" dominant-baseline="central" fill="rgb(0, 0, 0)">Victimised</text>
        </g>
        <g transform="translate(-130.578857421875, 291.2804260253906) rotate(-65.85366698149238) scale(0.9999999813211018,0.9999999813211018)">
            <text text-anchor="middle" dominant-baseline="central" fill="rgb(0, 0, 0)">Abandoned</text>
        </g>
        <g transform="translate(-152.49301147460938, 280.4300231933594) rotate(-61.46340908943534) scale(0.9999999988765698,0.9999999988765698)">
            <text text-anchor="middle" dominant-baseline="central" fill="rgb(0, 0, 0)">Isolated</text>
        </g>
        <g transform="translate(-173.5122833251953, 267.9339599609375) rotate(-57.07318063590748) skewX(3.1805545987010852e-15) scale(1.0000000260213837,1.0000000260213837)">
            <text text-anchor="middle" dominant-baseline="central" fill="rgb(0, 0, 0)">Inspired</text>
        </g>
        <g transform="translate(-193.5133056640625, 253.8655548095703) rotate(-52.68292054242534) scale(0.999999987362857,0.999999987362857)">
            <text text-anchor="middle" dominant-baseline="central" fill="rgb(0, 0, 0)">Hopeful</text>
        </g>
        <g transform="translate(-212.3787078857422, 238.30735778808594) rotate(-48.29269330948484) scale(1.0000000257707347,1.0000000257707347)">
            <text text-anchor="middle" dominant-baseline="central" fill="rgb(0, 0, 0)">Intimate</text>
        </g>
        <g transform="translate(-229.997802734375, 221.35069274902344) rotate(-43.90243553895705) skewX(-3.180554712041879e-15) scale(0.9999999903858399,0.9999999903858399)">
            <text text-anchor="middle" dominant-baseline="central" fill="rgb(0, 0, 0)">Sensitive</text>
        </g>
        <g transform="translate(-246.2671661376953, 203.0950469970703) rotate(-39.51220900801731) scale(0.9999999981056718,0.9999999981056718)">
            <text text-anchor="middle" dominant-baseline="central" fill="rgb(0, 0, 0)">Thankful</text>
        </g>
        <g transform="translate(-261.0913391113281, 183.64755249023438) rotate(-35.121949146919405) scale(1.000000006742079,1.000000006742079)">
            <text text-anchor="middle" dominant-baseline="central" fill="rgb(0, 0, 0)">Loving</text>
        </g>
        <g transform="translate(-274.3833312988281, 163.12234497070312) rotate(-30.731720239688208) skewX(3.1805546880313585e-15) scale(0.9999999979350012,0.9999999979350012)">
            <text text-anchor="middle" dominant-baseline="central" fill="rgb(0, 0, 0)">Creative</text>
        </g>
        <g transform="translate(-286.06512451171875, 141.63987731933594) rotate(-26.341461873617426) skewX(3.180554749393314e-15) scale(0.9999999786421545,0.9999999786421545)">
            <text text-anchor="middle" dominant-baseline="central" fill="rgb(0, 0, 0)">Courageous</text>
        </g>
        <g transform="translate(-296.0682067871094, 119.32620239257812) rotate(-21.9512338681892) skewX(-3.1805547614343194e-15) scale(0.9999999748563352,0.9999999748563352)">
            <text text-anchor="middle" dominant-baseline="central" fill="rgb(0, 0, 0)">Valued</text>
        </g>
        <g transform="translate(-304.33380126953125, 96.3122787475586) rotate(-17.560973688759834) scale(0.9999999766904215,0.9999999766904215)">
            <text text-anchor="middle" dominant-baseline="central" fill="rgb(0, 0, 0)">Respected</text>
        </g>
        <g transform="translate(-310.8134460449219, 72.733154296875) rotate(-13.170745237198014) scale(1.0000000280424572,1.0000000280424572)">
            <text text-anchor="middle" dominant-baseline="central" fill="rgb(0, 0, 0)">Confident</text>
        </g>
        <g transform="translate(-315.4691467285156, 48.72719955444336) rotate(-8.780486987373774) scale(0.9999999894529967,0.9999999894529967)">
            <text text-anchor="middle" dominant-baseline="central" fill="rgb(0, 0, 0)">Successful</text>
        </g>
        <g transform="translate(-318.2735290527344, 24.435298919677734) rotate(-4.390258968287047) scale(1.000000001496204,1.000000001496204)">
            <text text-anchor="middle" dominant-baseline="central" fill="rgb(0, 0, 0)">Inquisitive</text>
        </g>
        <g transform="translate(-319.21014404296875, -5.279391832556379e-13) rotate(-1.4033419209422001e-14)">
            <text text-anchor="middle" dominant-baseline="central" fill="rgb(0, 0, 0)">Curious</text>
        </g>
        <g transform="translate(-318.2735290527344, -24.435298919677734) rotate(4.390258968287046) scale(1.000000001496204,1.000000001496204)">
            <text text-anchor="middle" dominant-baseline="central" fill="rgb(0, 0, 0)">Joyful</text>
        </g>
        <g transform="translate(-181.35890197753906, 65.13629150390625) rotate(-19.756104414021017) scale(0.9999999877827167,0.9999999877827167)">
            <text text-anchor="middle" dominant-baseline="central" fill="rgb(0, 0, 0)">Accepted</text>
        </g>
        <g transform="translate(-189.1764678955078, 36.68861389160156) rotate(-10.975616764922682) skewX(1.5902773545238372e-15) scale(0.9999999913272496,0.9999999913272496)">
            <text text-anchor="middle" dominant-baseline="central" fill="rgb(0, 0, 0)">Proud</text>
        </g>
        <g transform="translate(-169.2904510498047, 92.0572280883789) rotate(-28.53659091056466) skewX(0) scale(0.9999999988765698,0.9999999988765698)">
            <text text-anchor="middle" dominant-baseline="central" fill="rgb(0, 0, 0)">Powerful</text>
        </g>
        <g transform="translate(-58.14194869995117, 183.72071838378906) rotate(-72.43902631124017) scale(0.9999999766904215,0.9999999766904215)">
            <text text-anchor="middle" dominant-baseline="central" fill="rgb(0, 0, 0)">Vulnerable</text>
        </g>
        <g transform="translate(-85.50538635253906, 172.6922607421875) rotate(-63.658538126382574) skewX(-3.180554749393314e-15) scale(0.9999999786421545,0.9999999786421545)">
            <text text-anchor="middle" dominant-baseline="central" fill="rgb(0, 0, 0)">Lonely</text>
        </g>
        <g transform="translate(-110.86465454101562, 157.6160430908203) rotate(-54.8780508530806) scale(1.000000006742079,1.000000006742079)">
            <text text-anchor="middle" dominant-baseline="central" fill="rgb(0, 0, 0)">Optimistic</text>
        </g>
        <g transform="translate(-133.62533569335938, 138.84544372558594) rotate(-46.09756446104296) skewX(3.180554712041879e-15) scale(0.9999999903858399,0.9999999903858399)">
            <text text-anchor="middle" dominant-baseline="central" fill="rgb(0, 0, 0)">Trusting</text>
        </g>
        <g transform="translate(-153.25396728515625, 116.82041931152344) rotate(-37.31707945757465) scale(0.999999987362857,0.999999987362857)">
            <text text-anchor="middle" dominant-baseline="central" fill="rgb(0, 0, 0)">Peaceful</text>
        </g>
        <g transform="translate(-192.5598907470703, 7.380986213684082) rotate(-2.1951295356800475) skewX(3.9756934646907016e-16) scale(0.9999999716121711,0.9999999716121711)">
            <text text-anchor="middle" dominant-baseline="central" fill="rgb(0, 0, 0)">Interested</text>
        </g>
        <g transform="translate(-191.42987060546875, -22.09964370727539) rotate(6.585357661353098) scale(1.0000000174086825,1.0000000174086825)">
            <text text-anchor="middle" dominant-baseline="central" fill="rgb(0, 0, 0)">Content</text>
        </g>
        <g transform="translate(-185.81289672851562, -51.062278747558594) rotate(15.365845011390947) scale(1.0000000097100892,1.0000000097100892)">
            <text text-anchor="middle" dominant-baseline="central" fill="rgb(0, 0, 0)">Playful</text>
        </g>
        <g transform="translate(-175.8406219482422, -78.82805633544922) rotate(24.14633301850763) scale(0.9999999813211018,0.9999999813211018)">
            <text text-anchor="middle" dominant-baseline="central" fill="rgb(0, 0, 0)">Excited</text>
        </g>
        <g transform="translate(-161.74681091308594, -104.74617004394531) rotate(32.92681936409253) skewX(3.1805545987010852e-15) scale(1.0000000260213837,1.0000000260213837)">
            <text text-anchor="middle" dominant-baseline="central" fill="rgb(0, 0, 0)">Amazed</text>
        </g>
        <g transform="translate(-143.8617706298828, -128.20912170410156) rotate(41.70730669051516) scale(1.0000000257707347,1.0000000257707347)">
            <text text-anchor="middle" dominant-baseline="central" fill="rgb(0, 0, 0)">Confused</text>
        </g>
        <g transform="translate(-122.60474395751953, -148.66696166992188) rotate(50.4877909919827) skewX(0) scale(0.9999999981056718,0.9999999981056718)">
            <text text-anchor="middle" dominant-baseline="central" fill="rgb(0, 0, 0)">Startled</text>
        </g>
        <g transform="translate(84.58478546142578, -307.79949951171875) rotate(-74.6341474976385) skewX(-3.180554732911065e-15) scale(0.9999999838243475,0.9999999838243475)">
            <text text-anchor="middle" dominant-baseline="central" fill="rgb(0, 0, 0)">Worried</text>
        </g>
        <g transform="translate(107.8984146118164, -300.42144775390625) rotate(-70.24390477554441) skewX(3.180554702103444e-15) scale(0.9999999935105888,0.9999999935105888)">
            <text text-anchor="middle" dominant-baseline="central" fill="rgb(0, 0, 0)">Inadequate</text>
        </g>
        <g transform="translate(130.578857421875, -291.2804260253906) rotate(-65.85366074891984) scale(1.0000000300858733,1.0000000300858733)">
            <text text-anchor="middle" dominant-baseline="central" fill="rgb(0, 0, 0)">Inferior</text>
        </g>
        <g transform="translate(152.49301147460938, -280.4300231933594) rotate(-61.46341372109616) skewX(0) scale(1.0000000227656558,1.0000000227656558)">
            <text text-anchor="middle" dominant-baseline="central" fill="rgb(0, 0, 0)">Worthless</text>
        </g>
        <g transform="translate(-98.47396087646484, -165.6401824951172) rotate(59.26827976031179) skewX(3.1805546880313585e-15) scale(0.9999999979350012,0.9999999979350012)">
            <text text-anchor="middle" dominant-baseline="central" fill="rgb(0, 0, 0)">Tired</text>
        </g>
        <g transform="translate(-72.0350341796875, -178.73092651367188) rotate(68.04876613181081) skewX(-3.1805547614343194e-15) scale(0.9999999748563352,0.9999999748563352)">
            <text text-anchor="middle" dominant-baseline="central" fill="rgb(0, 0, 0)">Stressed</text>
        </g>
        <g transform="translate(-43.90766525268555, -187.6323699951172) rotate(76.829254762802) scale(1.0000000280424572,1.0000000280424572)">
            <text text-anchor="middle" dominant-baseline="central" fill="rgb(0, 0, 0)">Busy</text>
        </g>
        <g transform="translate(-14.751140594482422, -192.1358642578125) rotate(85.60974103171296) scale(1.000000001496204,1.000000001496204)">
            <text text-anchor="middle" dominant-baseline="central" fill="rgb(0, 0, 0)">Bored</text>
        </g>
        <g transform="translate(12.226621627807617, -318.97589111328125) rotate(-87.8048782734518) scale(1.0000000260362714,1.0000000260362714)">
            <text text-anchor="middle" dominant-baseline="central" fill="rgb(0, 0, 0)">Helpless</text>
        </g>
        <g transform="translate(36.60811233520508, -317.1040344238281) rotate(-83.41463473779787) scale(0.9999999727230814,0.9999999727230814)">
            <text text-anchor="middle" dominant-baseline="central" fill="rgb(0, 0, 0)">Frightened</text>
        </g>
        <g transform="translate(60.77477264404297, -313.3712463378906) rotate(-79.02439142869122) skewX(1.5902773020750104e-15) scale(1.0000000243081806,1.0000000243081806)">
            <text text-anchor="middle" dominant-baseline="central" fill="rgb(0, 0, 0)">Overwhelmed</text>
        </g>
        <g transform="translate(173.5122833251953, -267.9339599609375) rotate(-57.0731711902139) scale(0.9999999907595143,0.9999999907595143)">
            <text text-anchor="middle" dominant-baseline="central" fill="rgb(0, 0, 0)">Insignificant</text>
        </g>
        <g transform="translate(193.5133056640625, -253.8655548095703) rotate(-52.68292532874292) scale(0.9999999986321502,0.9999999986321502)">
            <text text-anchor="middle" dominant-baseline="central" fill="rgb(0, 0, 0)">Excluded</text>
        </g>
        <g transform="translate(212.3787078857422, -238.30735778808594) rotate(-48.292683666084976) skewX(3.180554630295889e-15) scale(1.000000016087643,1.000000016087643)">
            <text text-anchor="middle" dominant-baseline="central" fill="rgb(0, 0, 0)">Persecuted</text>
        </g>
        <g transform="translate(229.997802734375, -221.35069274902344) rotate(-43.90244036774406) scale(0.9999999887712024,0.9999999887712024)">
            <text text-anchor="middle" dominant-baseline="central" fill="rgb(0, 0, 0)">Nervous</text>
        </g>
        <g transform="translate(246.2671661376953, -203.0950469970703) rotate(-39.512194585407364) skewX(3.1805546105700876e-15) scale(1.0000000222896437,1.0000000222896437)">
            <text text-anchor="middle" dominant-baseline="central" fill="rgb(0, 0, 0)">Exposed</text>
        </g>
        <g transform="translate(261.0913391113281, -183.64755249023438) rotate(-35.121953904993184) skewX(3.1805547060130902e-15) scale(0.9999999922813547,0.9999999922813547)">
            <text text-anchor="middle" dominant-baseline="central" fill="rgb(0, 0, 0)">Betrayed</text>
        </g>
        <g transform="translate(274.3833312988281, -163.12234497070312) rotate(-30.731707942799392) skewX(3.1805546527545665e-15) scale(1.0000000090263974,1.0000000090263974)">
            <text text-anchor="middle" dominant-baseline="central" fill="rgb(0, 0, 0)">Resentful</text>
        </g>
        <g transform="translate(286.06512451171875, -141.63987731933594) rotate(-26.341463403862534) scale(0.9999999918660358,0.9999999918660358)">
            <text text-anchor="middle" dominant-baseline="central" fill="rgb(0, 0, 0)">Disrespected</text>
        </g>
        <g transform="translate(296.0682067871094, -119.32620239257812) rotate(-21.951220228667417) scale(1.000000007438894,1.000000007438894)">
            <text text-anchor="middle" dominant-baseline="central" fill="rgb(0, 0, 0)">Ridiculed</text>
        </g>
        <g transform="translate(304.33380126953125, -96.3122787475586) rotate(-17.56097694469874) scale(0.9999999946743703,0.9999999946743703)">
            <text text-anchor="middle" dominant-baseline="central" fill="rgb(0, 0, 0)">Indignant</text>
        </g>
        <g transform="translate(310.8134460449219, -72.733154296875) rotate(-13.17073193615052) skewX(1.5902773825275566e-15) scale(0.9999999737179196,0.9999999737179196)">
            <text text-anchor="middle" dominant-baseline="central" fill="rgb(0, 0, 0)">Violated</text>
        </g>
        <g transform="translate(315.4691467285156, -48.72719955444336) rotate(-8.780487831141562) skewX(1.5902773538870918e-15) scale(0.9999999917276483,0.9999999917276483)">
            <text text-anchor="middle" dominant-baseline="central" fill="rgb(0, 0, 0)">Furious</text>
        </g>
        <g transform="translate(318.2735290527344, -24.435298919677734) rotate(-4.390244071088242) scale(0.9999999815343963,0.9999999815343963)">
            <text text-anchor="middle" dominant-baseline="central" fill="rgb(0, 0, 0)">Jealous</text>
        </g>
        <g transform="translate(319.21014404296875, 0)">
            <text text-anchor="middle" dominant-baseline="central" fill="rgb(0, 0, 0)">Provoked</text>
        </g>
        <g transform="translate(318.2735290527344, 24.435298919677734) rotate(4.390244071088242) scale(0.9999999815343963,0.9999999815343963)">
            <text text-anchor="middle" dominant-baseline="central" fill="rgb(0, 0, 0)">Hostile</text>
        </g>
        <g transform="translate(315.4691467285156, 48.72719955444336) rotate(8.780487831141562) skewX(-1.5902773538870918e-15) scale(0.9999999917276483,0.9999999917276483)">
            <text text-anchor="middle" dominant-baseline="central" fill="rgb(0, 0, 0)">Infuriated</text>
        </g>
        <g transform="translate(310.8134460449219, 72.733154296875) rotate(13.17073193615052) skewX(-1.5902773825275566e-15) scale(0.9999999737179196,0.9999999737179196)">
            <text text-anchor="middle" dominant-baseline="central" fill="rgb(0, 0, 0)">Annoyed</text>
        </g>
        <g transform="translate(304.33380126953125, 96.3122787475586) rotate(17.56097694469874) scale(0.9999999946743703,0.9999999946743703)">
            <text text-anchor="middle" dominant-baseline="central" fill="rgb(0, 0, 0)">Withdrawn</text>
        </g>
        <g transform="translate(-286.06512451171875, -141.63987731933594) rotate(26.341461873617426) skewX(-3.180554749393314e-15) scale(0.9999999786421545,0.9999999786421545)">
            <text text-anchor="middle" dominant-baseline="central" fill="rgb(0, 0, 0)">Eager</text>
        </g>
        <g transform="translate(-274.3833312988281, -163.12234497070312) rotate(30.731720239688208) skewX(-3.1805546880313585e-15) scale(0.9999999979350012,0.9999999979350012)">
            <text text-anchor="middle" dominant-baseline="central" fill="rgb(0, 0, 0)">Awe</text>
        </g>
        <g transform="translate(-315.4691467285156, -48.72719955444336) rotate(8.780486987373774) scale(0.9999999894529967,0.9999999894529967)">
            <text text-anchor="middle" dominant-baseline="central" fill="rgb(0, 0, 0)">Free</text>
        </g>
        <g transform="translate(-310.8134460449219, -72.733154296875) rotate(13.170745237198014) scale(1.0000000280424572,1.0000000280424572)">
            <text text-anchor="middle" dominant-baseline="central" fill="rgb(0, 0, 0)">Cheeky</text>
        </g>
        <g transform="translate(-304.33380126953125, -96.3122787475586) rotate(17.560973688759834) scale(0.9999999766904215,0.9999999766904215)">
            <text text-anchor="middle" dominant-baseline="central" fill="rgb(0, 0, 0)">Aroused</text>
        </g>
        <g transform="translate(-296.0682067871094, -119.32620239257812) rotate(21.951233868189192) skewX(3.1805547614343194e-15) scale(0.9999999748563352,0.9999999748563352)">
            <text text-anchor="middle" dominant-baseline="central" fill="rgb(0, 0, 0)">Energetic</text>
        </g>
        <path d="M-327.35251619146044,-211.99134450047634A390,390,0,0,1,-310.1642197966362,-236.42791027698897L-201.45757026665044,-153.5644323476553A253.3124306069483,253.3124306069483,0,0,0,-212.62169626092114,-137.6924172898733Z" style="fill: rgb(95, 184, 199); stroke: rgb(255, 255, 255); stroke-width: 1;">
            <title>Astonished</title>
        </path>
        <path d="M-310.1642197966362,-236.42791027698897A390,390,0,0,1,-291.15575642866526,-259.4770230645707L-189.1112111439739,-168.5352702542092A253.3124306069483,253.3124306069483,0,0,0,-201.45757026665044,-153.5644323476553Z" style="fill: rgb(96, 183, 202); stroke: rgb(255, 255, 255); stroke-width: 1;">
            <title>Perplexed</title>
        </path>
        <path d="M-291.15575642866526,-259.4770230645707A390,390,0,0,1,-270.43867530897404,-281.00342150430714L-175.6550722375372,-182.51707617980733A253.3124306069483,253.3124306069483,0,0,0,-189.1112111439739,-168.5352702542092Z" style="fill: rgb(97, 183, 205); stroke: rgb(255, 255, 255); stroke-width: 1;">
            <title>Disillusioned</title>
        </path>
        <path d="M-270.43867530897404,-281.00342150430714A390,390,0,0,1,-248.13455250735805,-300.880780130558L-161.16811952104183,-195.42779932765754A253.3124306069483,253.3124306069483,0,0,0,-175.6550722375372,-182.51707617980733Z" style="fill: rgb(99, 182, 208); stroke: rgb(255, 255, 255); stroke-width: 1;">
            <title>Dismayed</title>
        </path>
        <path d="M-248.13455250735805,-300.880780130558A390,390,0,0,1,-224.37427748526167,-318.99245069902014L-145.73536819351156,-207.1916744406049A253.3124306069483,253.3124306069483,0,0,0,-161.16811952104183,-195.42779932765754Z" style="fill: rgb(102, 182, 210); stroke: rgb(255, 255, 255); stroke-width: 1;">
            <title>Shocked</title>
        </path>
        <path d="M-224.37427748526198,-318.99245069901997A390,390,0,0,1,-199.2972849843729,-335.23214672500853L-129.44738377630043,-217.7396664217873A253.3124306069483,253.3124306069483,0,0,0,-145.73536819351176,-207.1916744406048Z" style="fill: rgb(105, 181, 212); stroke: rgb(255, 255, 255); stroke-width: 1;">
            <title>Unfocused</title>
        </path>
        <path d="M-199.2972849843729,-335.23214672500853A390,390,0,0,1,-173.05073676811438,-349.50456721481163L-112.39975063860065,-227.00987546003455A253.3124306069483,253.3124306069483,0,0,0,-129.44738377630043,-217.7396664217873Z" style="fill: rgb(109, 180, 214); stroke: rgb(255, 255, 255); stroke-width: 1;">
            <title>Sleepy</title>
        </path>
        <path d="M-173.05073676811438,-349.50456721481163A390,390,0,0,1,-145.7886580178999,-361.7259559298169L-94.6925110703574,-234.9479002825738A253.3124306069483,253.3124306069483,0,0,0,-112.39975063860065,-227.00987546003455Z" style="fill: rgb(113, 179, 216); stroke: rgb(255, 255, 255); stroke-width: 1;">
            <title>Uncontrolled</title>
        </path>
        <path d="M-145.7886580178999,-361.7259559298169A390,390,0,0,1,-117.67103345212499,-371.82459290142293L-76.42957819433155,-241.50715740332947A253.3124306069483,253.3124306069483,0,0,0,-94.6925110703574,-234.9479002825738Z" style="fill: rgb(117, 178, 217); stroke: rgb(255, 255, 255); stroke-width: 1;">
            <title>Overwhelmed</title>
        </path>
        <path d="M-117.67103345212499,-371.82459290142293A390,390,0,0,1,-88.86286847222358,-379.74121531233385L-57.718126162575665,-246.64915449334305A253.3124306069483,253.3124306069483,0,0,0,-76.42957819433155,-241.50715740332947Z" style="fill: rgb(122, 177, 219); stroke: rgb(255, 255, 255); stroke-width: 1;">
            <title>Rushed</title>
        </path>
        <path d="M-88.86286847222358,-379.74121531233385A390,390,0,0,1,-59.533220845360916,-385.4293652743359L-38.66796121589388,-250.343716269065A253.3124306069483,253.3124306069483,0,0,0,-57.718126162575665,-246.64915449334305Z" style="fill: rgb(127, 176, 220); stroke: rgb(255, 255, 255); stroke-width: 1;">
            <title>Pressured</title>
        </path>
        <path d="M-59.533220845360916,-385.4293652743359A390,390,0,0,1,-29.85420860623344,-388.85566246165877L-19.39087729715863,-252.56916157291758A253.3124306069483,253.3124306069483,0,0,0,-38.66796121589388,-250.343716269065Z" style="fill: rgb(132, 175, 220); stroke: rgb(255, 255, 255); stroke-width: 1;">
            <title>Apathetic</title>
        </path>
        <path d="M-29.85420860623344,-388.85566246165877A390,390,0,0,1,-7.164183775012016e-14,-390L-4.653273859905529e-14,-253.3124306069483A253.3124306069483,253.3124306069483,0,0,0,-19.39087729715863,-252.56916157291758Z" style="fill: rgb(137, 174, 221); stroke: rgb(255, 255, 255); stroke-width: 1;">
            <title>Indifferent</title>
        </path>
        <g transform="translate(-261.0913391113281, -183.64755249023438) rotate(35.121949146919405) scale(1.000000006742079,1.000000006742079)">
            <text text-anchor="middle" dominant-baseline="central" fill="rgb(0, 0, 0)">Astonished</text>
        </g>
        <g transform="translate(-246.2671661376953, -203.0950469970703) rotate(39.51220900801731) scale(0.9999999981056718,0.9999999981056718)">
            <text text-anchor="middle" dominant-baseline="central" fill="rgb(0, 0, 0)">Perplexed</text>
        </g>
        <g transform="translate(-229.997802734375, -221.35069274902344) rotate(43.90243553895705) skewX(3.180554712041879e-15) scale(0.9999999903858399,0.9999999903858399)">
            <text text-anchor="middle" dominant-baseline="central" fill="rgb(0, 0, 0)">Disillusioned</text>
        </g>
        <g transform="translate(-212.3787078857422, -238.30735778808594) rotate(48.29269330948484) scale(1.0000000257707347,1.0000000257707347)">
            <text text-anchor="middle" dominant-baseline="central" fill="rgb(0, 0, 0)">Dismayed</text>
        </g>
        <g transform="translate(-193.5133056640625, -253.8655548095703) rotate(52.68292054242534) scale(0.999999987362857,0.999999987362857)">
            <text text-anchor="middle" dominant-baseline="central" fill="rgb(0, 0, 0)">Shocked</text>
        </g>
        <g transform="translate(-173.5122833251953, -267.9339599609375) rotate(57.07318063590748) skewX(-3.1805545987010852e-15) scale(1.0000000260213837,1.0000000260213837)">
            <text text-anchor="middle" dominant-baseline="central" fill="rgb(0, 0, 0)">Unfocused</text>
        </g>
        <g transform="translate(-152.49301147460938, -280.4300231933594) rotate(61.46340908943534) scale(0.9999999988765698,0.9999999988765698)">
            <text text-anchor="middle" dominant-baseline="central" fill="rgb(0, 0, 0)">Sleepy</text>
        </g>
        <g transform="translate(-130.578857421875, -291.2804260253906) rotate(65.85366698149238) scale(0.9999999813211018,0.9999999813211018)">
            <text text-anchor="middle" dominant-baseline="central" fill="rgb(0, 0, 0)">Uncontrolled</text>
        </g>
        <g transform="translate(-107.8984146118164, -300.42144775390625) rotate(70.24389558597899) scale(0.9999999877827167,0.9999999877827167)">
            <text text-anchor="middle" dominant-baseline="central" fill="rgb(0, 0, 0)">Overwhelmed</text>
        </g>
        <g transform="translate(-84.58478546142578, -307.79949951171875) rotate(74.63415498860907) scale(1.0000000097100892,1.0000000097100892)">
            <text text-anchor="middle" dominant-baseline="central" fill="rgb(0, 0, 0)">Rushed</text>
        </g>
        <g transform="translate(-60.77477264404297, -313.3712463378906) rotate(79.02438323507732) skewX(1.590277354523837e-15) scale(0.9999999913272496,0.9999999913272496)">
            <text text-anchor="middle" dominant-baseline="central" fill="rgb(0, 0, 0)">Pressured</text>
        </g>
        <g transform="translate(-36.60811233520508, -317.1040344238281) rotate(83.4146423386469) scale(1.0000000174086825,1.0000000174086825)">
            <text text-anchor="middle" dominant-baseline="central" fill="rgb(0, 0, 0)">Apathetic</text>
        </g>
        <g transform="translate(-12.226621627807617, -318.97589111328125) rotate(87.80487046431996) skewX(3.9756934646907016e-16) scale(0.9999999716121711,0.9999999716121711)">
            <text text-anchor="middle" dominant-baseline="central" fill="rgb(0, 0, 0)">Indifferent</text>
        </g>
    </g>
</svg>